# AST/ASF file generated using VICON BodyLanguage
# -----------------------------------------------
:version 1.10
:name VICON
:units
  mass 1.0
  length 0.45
  angle deg
:documentation
   .ast/.asf automatically generated from VICON data using
   VICON BodyBuilder and BodyLanguage model FoxedUp or BRILLIANT.MOD
:root
   order TX TY TZ RX RY RZ
   axis XYZ
   position 0 0 0  
   orientation 0 0 0 
:bonedata
  begin
     id 1 
     name lhipjoint
     direction 0.78388 -0.462562 0.414208 
     length 3.01181 
     axis 0 0 0  XYZ
  end
  begin
     id 2 
     name lfemur
     direction 0.34202 -0.939693 0  
     length 6.04673  
     axis 0 0 20  XYZ
    dof rx ry rz
    limits (-160.0 20.0)
           (-70.0 70.0)
           (-60.0 70.0)
  end
  begin
     id 3 
     name ltibia
     direction 0.34202 -0.939693 0   
     length 7.211   
     axis 0 0 20   XYZ
    dof rx
    limits (-10.0 170.0)
  end
  begin
     id 4 
     name lfoot
     direction 0.121887 -0.334882 0.934344   
     length 2.13567   
     axis -90 7.62852e-016 20   XYZ
    dof rx rz
    limits (-45.0 90.0)
           (-70.0 20.0)
  end
  begin
     id 5 
     name ltoes
     direction 1.53555e-011 -4.2179e-011 1   
     length 1.05957   
     axis -90 7.62852e-016 20   XYZ
    dof rx
    limits (-90.0 20.0)
  end
  begin
     id 6 
     name rhipjoint
     direction -0.769387 -0.475875 0.426129   
     length 2.92756  
     axis 0 0 0  XYZ 
  end
  begin
     id 7 
     name rfemur
     direction -0.34202 -0.939693 0   
     length 6.35468   
     axis 0 0 -20   XYZ
    dof rx ry rz
    limits (-160.0 20.0)
           (-70.0 70.0)
           (-70.0 60.0)
  end
  begin
     id 8 
     name rtibia
     direction -0.34202 -0.939693 0   
     length 7.37886   
     axis 0 0 -20   XYZ
    dof rx
    limits (-10.0 170.0)
 end
 begin
     id 9 
     name rfoot
     direction -0.101763 -0.279592 0.954711   
     length 2.21478  
     axis -90 -7.62852e-016 -20   XYZ
    dof rx rz
    limits (-45.0 90.0)
           (-20.0 70.0)
  end
  begin
     id 10 
     name rtoes
     direction -1.53494e-011 -4.21851e-011 1   
     length 1.10506   
     axis -90 -7.62852e-016 -20   XYZ
    dof rx
    limits (-90.0 20.0)
  end
  begin
     id 11 
     name lowerback
     direction 0.00747405 0.999267 0.0375481   
     length 2.13259   
     axis 0 0 0   XYZ
    dof rx ry rz
    limits (-20.0 45.0)
           (-30.0 30.0)
           (-30.0 30.0)
  end
  begin
     id 12 
     name upperback
     direction 0.00661626 0.996177 0.0871029   
     length 2.10528   
     axis 0 0 0   XYZ
    dof rx ry rz
    limits (-20.0 45.0)
           (-30.0 30.0)
           (-30.0 30.0)
  end
  begin
     id 13 
     name thorax
     direction 0.00320659 0.997679 0.0680167   
     length 2.11338   
     axis 0 0 0   XYZ
    dof rx ry rz
    limits (-20.0 45.0)
           (-30.0 30.0)
           (-30.0 30.0)
  end
  begin
     id 14 
     name lowerneck
     direction 0.0374841 0.973033 0.227602   
     length 1.42765   
     axis 0 0 0   XYZ
    dof rx ry rz
    limits (-20.0 45.0)
           (-30.0 30.0)
           (-30.0 30.0)
  end
  begin
     id 15 
     name upperneck
     direction 0.00481585 0.989155 -0.146795   
     length 1.47593   
     axis 0 0 0   XYZ
    dof rx ry rz
    limits (-20.0 45.0)
           (-30.0 30.0)
           (-30.0 30.0)
  end
  begin
     id 16
     name head
     direction -0.00292522 0.997206 -0.0746423  
     length 1.48116  
     axis 0 0 0   XYZ
    dof rx ry rz
    limits (-20.0 45.0)
           (-30.0 30.0)
           (-30.0 30.0)
  end
  begin
     id 17 
     name lclavicle
     direction 0.951444 0.305606 0.0368784  
     length 3.01855  
     axis 0 0 0   XYZ
    dof ry rz
    limits (-20.0 10.0)
           (0.0 20.0)
  end
  begin
     id 18 
     name lhumerus
     direction 1 -4.48977e-011 2.61664e-027   
     length 5.52731   
     axis 180 -30 -90   XYZ
    dof rx ry rz
    limits (-60.0 90.0)
           (-90.0 90.0)
           (-90.0 90.0)
  end
  begin
     id 19
     name lradius
     direction 1 -4.48944e-011 8.22157e-027   
     length 3.11059   
     axis 180 -30 -90   XYZ
    dof rx
    limits (-10.0 170.0)
  end
  begin
     id 20
     name lwrist
     direction 1 -4.48976e-011 1.5779e-026   
     length 1.5553   
     axis -1.15221e-014 90 90   XYZ
    dof ry
    limits (-180.0 0.0)
 end
  begin
     id 21 
     name lhand
     direction 1 -4.49025e-011 3.1558e-026   
     length 0.419626   
     axis -2.01367e-014 90 90   XYZ
    dof rx rz
    limits (-90.0 90.0)
           (-45.0 45.0)
  end
  begin
     id 22 
     name lfingers
     direction 1 -4.4904e-011 6.31161e-026   
     length 0.338313   
     axis -4.02734e-014 90 90   XYZ
    dof rx
    limits (0.0 90.0)
  end
  begin
     id 23
     name lthumb
     direction 0.707107 -6.35004e-011 0.707107   
     length 0.485752   
     axis -90 45 2.85299e-015   XYZ
    dof rx rz
    limits (-45.0 45.0)
           (-45.0 45.0)
  end
  begin
     id 24 
     name rclavicle
     direction -0.968876 0.223791 0.105816   
     length 3.04177  
     axis 0 0 0   XYZ 
    dof ry rz
    limits (-10.0 20.0)
           (-20.0 0.0)
  end
  begin
     id 25 
     name rhumerus
     direction -1 -4.48962e-011 -1.01384e-027  
     length 5.25396   
     axis 180 30 90   XYZ
    dof rx ry rz
    limits (-90.0 60.0)
           (-90.0 90.0)
           (-90.0 90.0)
  end
  begin
     id 26 
     name rradius
     direction -1 -4.48955e-011 8.88542e-027   
     length 3.10567   
     axis 180 30 90   XYZ
    dof rx
    limits (-10.0 170.0)
  end
  begin
     id 27 
     name rwrist
     direction -1 -4.48994e-011 1.5779e-026   
     length 1.55283   
     axis -1.15221e-014 -90 -90   XYZ
    dof ry
    limits (-180.0 0.0)
  end
  begin
     id 28
     name rhand
     direction -1 -4.48891e-011 3.1558e-026   
     length 0.498676   
     axis -2.01367e-014 -90 -90   XYZ
    dof rx rz
    limits (-90.0 90.0)
           (-45.0 45.0)
  end
  begin
     id 29
     name rfingers
     direction -1 -4.48972e-011 6.31161e-026   
     length 0.402045   
     axis -4.02734e-014 -90 -90   XYZ
    dof rx
    limits (0.0 90.0)
  end
  begin
     id 30
     name rthumb
     direction -0.707107 -6.34849e-011 0.707107   
     length 0.577259   
     axis -90 -45 -2.85299e-015   XYZ
    dof rx rz
    limits (-45.0 45.0)
           (-45.0 45.0)
  end
:hierarchy
  begin
    root lhipjoint rhipjoint lowerback
    lhipjoint lfemur
    lfemur ltibia
    ltibia lfoot
    lfoot ltoes
    rhipjoint rfemur
    rfemur rtibia
    rtibia rfoot
    rfoot rtoes
    lowerback upperback
    upperback thorax
    thorax lowerneck lclavicle rclavicle
    lowerneck upperneck
    upperneck head
    lclavicle lhumerus
    lhumerus lradius
    lradius lwrist
    lwrist lhand lthumb
    lhand lfingers
    rclavicle rhumerus
    rhumerus rradius
    rradius rwrist
    rwrist rhand rthumb
    rhand rfingers
  end

#!OML:ASF H:\Pregnant\Project 1\Capture day 1\Session 1\femalepreg.ASF
:FULLY-SPECIFIED
:DEGREES
1
root 10.5138 15.1124 39.1338 -164.766 -26.7424 -174.269
lowerback -14.0173 1.21039 13.6673
upperback -4.90015 -1.3572 4.82084
thorax 2.48591 -1.11447 -2.77572
lowerneck -10.1571 16.7693 18.422
upperneck 23.0112 22.8417 -12.3036
head 12.9962 10.5116 -3.67934
rclavicle -3.22528e-014 -9.22361e-014
rhumerus -37.0456 -7.26629 -69.5944
rradius 26.8878
rwrist -2.06056
rhand -16.6527 -20.5015
rfingers 7.12502
rthumb 9.5704 -50.2641
lclavicle -3.22528e-014 -9.22361e-014
lhumerus -44.1584 -32.3866 101.129
lradius 37.3926
lwrist 44.0593
lhand -28.9038 0.367343
lfingers 7.12502
lthumb -2.25884 30.3351
rfemur -33.1388 15.4565 27.6267
rtibia 33.489
rfoot -17.3279 -4.71646
rtoes 1.47731
lfemur -46.7163 -11.9177 -6.11495
ltibia 40.9293
lfoot -7.46639 15.9093
ltoes -41.1194
2
root 10.474 15.1234 39.1123 -164.603 -26.2822 -174.184
lowerback -14.146 1.09696 13.5563
upperback -4.75338 -1.54167 4.97465
thorax 2.69727 -1.18723 -2.58504
lowerneck -10.2759 16.8521 18.2686
upperneck 22.9164 23.0106 -12.455
head 13.0127 10.5518 -3.66649
rclavicle 9.44227e-015 -7.4743e-014
rhumerus -36.8444 -7.35963 -69.1187
rradius 26.5057
rwrist -1.77582
rhand -16.6668 -20.0822
rfingers 7.12502
rthumb 9.5568 -49.8455
lclavicle 9.44227e-015 -7.4743e-014
lhumerus -43.7646 -32.0653 101.007
lradius 37.4401
lwrist 43.9588
lhand -28.972 0.526179
lfingers 7.12502
lthumb -2.32467 30.4933
rfemur -33.0282 15.2274 27.647
rtibia 33.1517
rfoot -17.5052 -4.00335
rtoes 1.73183
lfemur -46.7234 -12.3859 -5.34969
ltibia 39.6341
lfoot -7.91018 14.8761
ltoes -41.5134
3
root 10.4356 15.134 39.0915 -164.435 -25.8724 -174.111
lowerback -14.0467 1.03964 13.5454
upperback -4.81585 -1.59522 4.96125
thorax 2.56863 -1.2259 -2.59906
lowerneck -10.2827 16.8497 18.3165
upperneck 23.0181 22.9821 -12.3995
head 13.0489 10.5434 -3.65846
rclavicle 4.42793e-014 7.95139e-014
rhumerus -37.0887 -7.51555 -68.7703
rradius 26.1647
rwrist -1.55419
rhand -16.9949 -20.0418
rfingers 7.12502
rthumb 9.24027 -49.8193
lclavicle 4.42793e-014 7.95139e-014
lhumerus -43.8093 -32.0225 101.022
lradius 37.4731
lwrist 43.9889
lhand -28.8974 0.435716
lfingers 7.12502
lthumb -2.25257 30.4036
rfemur -32.9194 14.8957 27.6881
rtibia 32.8273
rfoot -17.6769 -3.36763
rtoes 2.02704
lfemur -46.7696 -12.9533 -4.5236
ltibia 38.3858
lfoot -8.3846 13.831
ltoes -41.6203
4
root 10.3958 15.1426 39.0674 -164.262 -25.4257 -173.973
lowerback -14.1295 1.03866 13.5438
upperback -4.80661 -1.61416 4.93342
thorax 2.62033 -1.23324 -2.63254
lowerneck -10.2427 16.7241 18.3484
upperneck 23.0105 22.7695 -12.3494
head 12.9972 10.4611 -3.69846
rclavicle 4.02539e-014 -3.33958e-014
rhumerus -37.2881 -7.91191 -68.3995
rradius 25.8801
rwrist -1.16997
rhand -17.0706 -20.3693
rfingers 7.12502
rthumb 9.16725 -50.15
lclavicle 4.02539e-014 -3.33958e-014
lhumerus -43.7295 -32.0183 100.954
lradius 37.4937
lwrist 44.0195
lhand -28.6746 0.360679
lfingers 7.12502
lthumb -2.03745 30.3307
rfemur -32.8364 14.5551 27.7966
rtibia 32.5127
rfoot -17.9569 -2.75252
rtoes 1.60395
lfemur -46.7546 -13.3549 -3.76981
ltibia 37.149
lfoot -8.65342 12.6834
ltoes -41.745
5
root 10.3559 15.1496 39.044 -164.091 -24.9903 -173.854
lowerback -14.1787 0.998559 13.5009
upperback -4.79703 -1.6773 4.95418
thorax 2.65131 -1.26411 -2.59829
lowerneck -10.4236 16.6959 18.2688
upperneck 23.1665 22.6961 -12.2528
head 13.0576 10.4168 -3.6569
rclavicle 4.87022e-014 -3.49861e-014
rhumerus -37.4125 -8.1577 -68.0021
rradius 25.559
rwrist -0.859745
rhand -17.2182 -20.5039
rfingers 7.12502
rthumb 9.02476 -50.2908
lclavicle 4.87022e-014 -3.49861e-014
lhumerus -43.6141 -31.9249 100.903
lradius 37.5079
lwrist 44.042
lhand -28.5097 0.288868
lfingers 7.12502
lthumb -1.87822 30.2603
rfemur -32.7613 14.1132 27.9118
rtibia 32.229
rfoot -18.2676 -1.9959
rtoes 1.45412
lfemur -46.7468 -13.8114 -2.98507
ltibia 35.9449
lfoot -8.94105 11.6478
ltoes -41.984
6
root 10.3159 15.1553 39.0199 -163.921 -24.5599 -173.725
lowerback -14.2299 0.964022 13.4526
upperback -4.80171 -1.73166 4.9681
thorax 2.66927 -1.29239 -2.56686
lowerneck -10.6646 16.6507 18.1578
upperneck 23.3917 22.5845 -12.1007
head 13.1388 10.3536 -3.5956
rclavicle 4.56211e-014 -1.11319e-013
rhumerus -37.5639 -8.40121 -67.6131
rradius 25.2547
rwrist -0.563064
rhand -17.3692 -20.6803
rfingers 7.12502
rthumb 8.87911 -50.4735
lclavicle 4.56211e-014 -1.11319e-013
lhumerus -43.5142 -31.8407 100.857
lradius 37.5082
lwrist 44.0837
lhand -28.3337 0.220053
lfingers 7.12502
lthumb -1.70817 30.193
rfemur -32.6968 13.6071 28.0547
rtibia 31.9653
rfoot -18.6226 -1.19413
rtoes 1.26623
lfemur -46.7396 -14.223 -2.23501
ltibia 34.8229
lfoot -9.165 10.6339
ltoes -42.2166
7
root 10.2755 15.1598 38.9949 -163.754 -24.1262 -173.587
lowerback -14.3021 0.936647 13.3963
upperback -4.80133 -1.77883 4.97533
thorax 2.70522 -1.31562 -2.5377
lowerneck -10.9566 16.5841 18.0144
upperneck 23.6547 22.4316 -11.9086
head 13.2286 10.2705 -3.52137
rclavicle 1.04362e-014 7.79236e-014
rhumerus -37.718 -8.64974 -67.2362
rradius 24.9692
rwrist -0.292974
rhand -17.5001 -20.8836
rfingers 7.12502
rthumb 8.75277 -50.6821
lclavicle 1.04362e-014 7.79236e-014
lhumerus -43.3989 -31.769 100.8
lradius 37.4971
lwrist 44.1409
lhand -28.1777 0.185414
lfingers 7.12502
lthumb -1.55749 30.1595
rfemur -32.6434 13.039 28.2231
rtibia 31.736
rfoot -19.0219 -0.341168
rtoes 1.02214
lfemur -46.7071 -14.5687 -1.54602
ltibia 33.7725
lfoot -9.30467 9.6525
ltoes -42.4419
8
root 10.2349 15.1633 38.9691 -163.591 -23.6932 -173.443
lowerback -14.3865 0.911081 13.3267
upperback -4.80066 -1.8235 4.97979
thorax 2.7489 -1.33704 -2.50417
lowerneck -11.2985 16.4992 17.8335
upperneck 23.9599 22.2432 -11.676
head 13.3295 10.1695 -3.43203
rclavicle -7.70291e-014 6.99722e-014
rhumerus -37.8762 -8.87661 -66.8787
rradius 24.7096
rwrist -0.0673094
rhand -17.6347 -21.055
rfingers 7.12502
rthumb 8.62283 -50.8589
lclavicle -7.70291e-014 6.99722e-014
lhumerus -43.2735 -31.6991 100.738
lradius 37.4774
lwrist 44.2102
lhand -28.0573 0.195272
lfingers 7.12502
lthumb -1.44125 30.1701
rfemur -32.5953 12.4226 28.4109
rtibia 31.5277
rfoot -19.4494 0.546799
rtoes 0.731592
lfemur -46.6619 -14.8307 -0.938497
ltibia 32.8305
lfoot -9.367 8.7053
ltoes -42.6467
9
root 10.1942 15.1658 38.9427 -163.433 -23.2587 -173.291
lowerback -14.4747 0.894126 13.2556
upperback -4.81046 -1.85485 4.96723
thorax 2.78452 -1.35272 -2.48584
lowerneck -11.571 16.3639 17.6632
upperneck 24.2338 21.9793 -11.4331
head 13.3921 10.043 -3.36342
rclavicle 4.36332e-014 3.81667e-014
rhumerus -38.0791 -9.09671 -66.5485
rradius 24.4902
rwrist 0.120606
rhand -17.7421 -21.2193
rfingers 7.12502
rthumb 8.51925 -51.0275
lclavicle 4.36332e-014 3.81667e-014
lhumerus -43.1695 -31.6507 100.674
lradius 37.4515
lwrist 44.2849
lhand -27.9851 0.257602
lfingers 7.12502
lthumb -1.37155 30.2329
rfemur -32.553 11.7961 28.6079
rtibia 31.3408
rfoot -19.8712 1.43973
rtoes 0.460306
lfemur -46.6058 -14.9884 -0.430828
ltibia 32.02
lfoot -9.34375 7.78489
ltoes -42.8275
10
root 10.1534 15.1673 38.9158 -163.279 -22.8214 -173.132
lowerback -14.5715 0.878855 13.1719
upperback -4.8237 -1.88344 4.95311
thorax 2.82195 -1.36718 -2.46208
lowerneck -11.8566 16.2082 17.4846
upperneck 24.5364 21.6837 -11.1835
head 13.4637 9.90096 -3.29757
rclavicle 4.52235e-014 1.59028e-015
rhumerus -38.2915 -9.28833 -66.2391
rradius 24.2988
rwrist 0.275964
rhand -17.8382 -21.3357
rfingers 7.12502
rthumb 8.42652 -51.1476
lclavicle 4.52235e-014 1.59028e-015
lhumerus -43.0649 -31.5911 100.606
lradius 37.4198
lwrist 44.3496
lhand -27.9254 0.32883
lfingers 7.12502
lthumb -1.31388 30.3045
rfemur -32.5189 11.1723 28.8109
rtibia 31.176
rfoot -20.2933 2.32268
rtoes 0.149541
lfemur -46.5406 -15.0228 -0.040488
ltibia 31.367
lfoot -9.21407 6.86168
ltoes -42.9132
